<svg width="15" height="15" viewBox="0 0 15 15" fill="none" xmlns="http://www.w3.org/2000/svg">
<path d="M12.6313 4.88752L7.81876 7.67502C7.62501 7.78752 7.38126 7.78752 7.18126 7.67502L2.36876 4.88752C2.02501 4.68752 1.93751 4.21877 2.20001 3.92502C2.38126 3.71877 2.58751 3.55002 2.80626 3.43127L6.19376 1.55627C6.91876 1.15002 8.09376 1.15002 8.81876 1.55627L12.2063 3.43127C12.425 3.55002 12.6313 3.72502 12.8125 3.92502C13.0625 4.21877 12.975 4.68752 12.6313 4.88752Z" fill="#ED5D37"/>
<path d="M7.1438 8.83755V13.1C7.1438 13.575 6.66255 13.8875 6.23755 13.6813C4.95005 13.05 2.7813 11.8688 2.7813 11.8688C2.0188 11.4375 1.3938 10.35 1.3938 9.4563V6.2313C1.3938 5.73755 1.91255 5.42505 2.33755 5.6688L6.8313 8.27505C7.0188 8.3938 7.1438 8.6063 7.1438 8.83755Z" fill="#ED5D37"/>
<path d="M7.8562 8.83755V13.1C7.8562 13.575 8.33745 13.8875 8.76245 13.6813C10.05 13.05 12.2187 11.8688 12.2187 11.8688C12.9812 11.4375 13.6062 10.35 13.6062 9.4563V6.2313C13.6062 5.73755 13.0875 5.42505 12.6625 5.6688L8.1687 8.27505C7.9812 8.3938 7.8562 8.6063 7.8562 8.83755Z" fill="#ED5D37"/>
</svg>
