<svg width="15" height="15" viewBox="0 0 15 15" fill="none" xmlns="http://www.w3.org/2000/svg">
<path d="M13.5938 5.00005C13.5938 5.2563 13.3813 5.4688 13.125 5.4688H1.875C1.61875 5.4688 1.40625 5.2563 1.40625 5.00005C1.40625 4.7438 1.61875 4.5313 1.875 4.5313H2.5125L2.75 3.40005C2.975 2.3063 3.44375 1.30005 5.30625 1.30005H9.69375C11.5563 1.30005 12.025 2.3063 12.25 3.40005L12.4875 4.5313H13.125C13.3813 4.5313 13.5938 4.7438 13.5938 5.00005Z" fill="#ED5D37"/>
<path d="M13.8625 8.5375C13.7687 7.50625 13.4937 6.40625 11.4875 6.40625H3.51249C1.50624 6.40625 1.23749 7.50625 1.13749 8.5375L0.787493 12.3438C0.743743 12.8187 0.899993 13.2938 1.22499 13.65C1.55624 14.0125 2.02499 14.2188 2.52499 14.2188H3.69999C4.71249 14.2188 4.90624 13.6375 5.03124 13.2562L5.15624 12.8813C5.29999 12.45 5.33749 12.3438 5.89999 12.3438H9.09999C9.66249 12.3438 9.68124 12.4063 9.84374 12.8813L9.96874 13.2562C10.0937 13.6375 10.2875 14.2188 11.3 14.2188H12.475C12.9687 14.2188 13.4437 14.0125 13.775 13.65C14.1 13.2938 14.2562 12.8187 14.2125 12.3438L13.8625 8.5375ZM5.62499 9.84375H3.74999C3.49374 9.84375 3.28124 9.63125 3.28124 9.375C3.28124 9.11875 3.49374 8.90625 3.74999 8.90625H5.62499C5.88124 8.90625 6.09374 9.11875 6.09374 9.375C6.09374 9.63125 5.88124 9.84375 5.62499 9.84375ZM11.25 9.84375H9.37499C9.11874 9.84375 8.90624 9.63125 8.90624 9.375C8.90624 9.11875 9.11874 8.90625 9.37499 8.90625H11.25C11.5062 8.90625 11.7187 9.11875 11.7187 9.375C11.7187 9.63125 11.5062 9.84375 11.25 9.84375Z" fill="#ED5D37"/>
</svg>
