<svg width="15" height="15" viewBox="0 0 15 15" fill="none" xmlns="http://www.w3.org/2000/svg">
<path d="M13.975 5.16875L13.7938 3.4375C13.5313 1.55 12.675 0.78125 10.8438 0.78125H9.36878H8.44378H6.54378H5.61878H4.11878C2.28128 0.78125 1.43128 1.55 1.16253 3.45625L0.993775 5.175C0.931275 5.84375 1.11253 6.49375 1.50628 7C1.98128 7.61875 2.71253 7.96875 3.52503 7.96875C4.31253 7.96875 5.06878 7.575 5.54378 6.94375C5.96878 7.575 6.69378 7.96875 7.50003 7.96875C8.30628 7.96875 9.01253 7.59375 9.44378 6.96875C9.92502 7.5875 10.6688 7.96875 11.4438 7.96875C12.275 7.96875 13.025 7.6 13.4938 6.95C13.8688 6.45 14.0375 5.81875 13.975 5.16875Z" fill="#ED5D37"/>
<path d="M7.0937 10.4125C6.29995 10.4938 5.69995 11.1688 5.69995 11.9688V13.6813C5.69995 13.85 5.83745 13.9875 6.0062 13.9875H8.98745C9.1562 13.9875 9.2937 13.85 9.2937 13.6813V12.1875C9.29995 10.8813 8.5312 10.2625 7.0937 10.4125Z" fill="#ED5D37"/>
<path d="M13.3563 9.00005V10.8625C13.3563 12.5875 11.9563 13.9875 10.2313 13.9875C10.0625 13.9875 9.92505 13.85 9.92505 13.6813V12.1875C9.92505 11.3875 9.6813 10.7625 9.2063 10.3375C8.78755 9.9563 8.2188 9.7688 7.51255 9.7688C7.3563 9.7688 7.20005 9.77505 7.0313 9.7938C5.9188 9.9063 5.07505 10.8438 5.07505 11.9688V13.6813C5.07505 13.85 4.93755 13.9875 4.7688 13.9875C3.0438 13.9875 1.6438 12.5875 1.6438 10.8625V9.01255C1.6438 8.57505 2.07505 8.2813 2.4813 8.42505C2.65005 8.4813 2.8188 8.52505 2.9938 8.55005C3.0688 8.56255 3.15005 8.57505 3.22505 8.57505C3.32505 8.58755 3.42505 8.5938 3.52505 8.5938C4.25005 8.5938 4.96255 8.32505 5.52505 7.86255C6.06255 8.32505 6.76255 8.5938 7.50005 8.5938C8.2438 8.5938 8.9313 8.33755 9.4688 7.87505C10.0313 8.3313 10.7313 8.5938 11.4438 8.5938C11.5563 8.5938 11.6688 8.58755 11.775 8.57505C11.85 8.5688 11.9188 8.56255 11.9875 8.55005C12.1813 8.52505 12.3563 8.4688 12.5313 8.41255C12.9375 8.27505 13.3563 8.57505 13.3563 9.00005Z" fill="#ED5D37"/>
</svg>
